<svg xmlns="http://www.w3.org/2000/svg" xmlns:xlink="http://www.w3.org/1999/xlink" width="41.658" height="41.658" viewBox="0 0 41.658 41.658">
  <defs>
    <style>
      .cls-1 {
        opacity: 0.6;
      }

      .cls-2 {
        fill: url(#radial-gradient);
      }

      .cls-3 {
        fill: #fff;
      }
    </style>
    <radialGradient id="radial-gradient" cx="0.293" cy="1.077" r="1.325" gradientTransform="translate(0 0)" gradientUnits="objectBoundingBox">
      <stop offset="0.097" stop-color="#ffd87a"/>
      <stop offset="0.143" stop-color="#fcce78"/>
      <stop offset="0.226" stop-color="#f5b471"/>
      <stop offset="0.338" stop-color="#eb8d65"/>
      <stop offset="0.449" stop-color="#e36058"/>
      <stop offset="0.679" stop-color="#cd3694"/>
      <stop offset="1" stop-color="#6668b0"/>
    </radialGradient>
  </defs>
  <g id="icon-instagram" class="cls-1">
    <path id="Path_6" data-name="Path 6" class="cls-2" d="M41.658,32.147a9.507,9.507,0,0,1-9.511,9.511H9.511A9.507,9.507,0,0,1,0,32.147V9.52A9.521,9.521,0,0,1,9.52,0H32a9.653,9.653,0,0,1,9.658,9.658Z" transform="translate(0 0)"/>
    <g id="Group_1" data-name="Group 1" transform="translate(5.736 5.744)">
      <path id="Path_7" data-name="Path 7" class="cls-3" d="M91.386,70.6H79.8a9.3,9.3,0,0,0-9.3,9.3V91.478a9.29,9.29,0,0,0,9.3,9.292H91.378a9.289,9.289,0,0,0,9.292-9.292V79.9A9.278,9.278,0,0,0,91.386,70.6Zm6.4,19.763a7.507,7.507,0,0,1-7.51,7.51H80.915a7.507,7.507,0,0,1-7.51-7.51V81.006a7.507,7.507,0,0,1,7.51-7.51h9.357a7.513,7.513,0,0,1,7.51,7.51Z" transform="translate(-70.5 -70.6)"/>
      <path id="Path_8" data-name="Path 8" class="cls-3" d="M171.249,159a7.949,7.949,0,1,0,7.949,7.949A7.945,7.945,0,0,0,171.249,159Zm0,12.725a4.784,4.784,0,1,1,4.784-4.784A4.782,4.782,0,0,1,171.249,171.725Z" transform="translate(-155.749 -151.807)"/>
      <path id="Path_9" data-name="Path 9" class="cls-3" d="M331.136,134.626a2.018,2.018,0,1,1-2.018-2.026A2.017,2.017,0,0,1,331.136,134.626Z" transform="translate(-306.222 -127.555)"/>
    </g>
  </g>
</svg>
