<svg
  xmlns="http://www.w3.org/2000/svg"
  width="50"
  height="50"
  viewBox="0 0 50 50"
>
  <g fill="#fff">
    <path d="M25 0a25 25 0 1024.98 25.19.968.968 0 000-.387A25 25 0 0025 0zm0 2A23 23 0 112 25 22.985 22.985 0 0125 2z"></path>
    <path d="M29.933 34.71a41.335 41.335 0 01-.09-4.21c.73-.383 2.038-2.825 2.259-4.888.574-.047 1.479-.607 1.744-2.818a2.064 2.064 0 00-.771-2.065c.934-2.809 2.874-11.5-3.588-12.4-.665-1.168-2.368-1.759-4.581-1.759-8.854.163-9.922 6.686-7.981 14.156a2.068 2.068 0 00-.771 2.065c.266 2.211 1.17 2.771 1.744 2.818.22 2.062 1.58 4.505 2.312 4.888a41.346 41.346 0 01-.091 4.21c-1.261 3.39-7.737 3.655-11.473 6.924a24.45 24.45 0 0016.916 6.749c6.68 0 14.532-5.274 15.839-6.713-3.713-3.3-10.2-3.555-11.468-6.957z"></path>
  </g>
</svg>