<svg xmlns="http://www.w3.org/2000/svg" width="42.958" height="42.958" viewBox="0 0 42.958 42.958">
  <defs>
    <style>
      .cls-1 {
        fill: #fff;
      }
    </style>
  </defs>
  <path id="icon-phone" class="cls-1" d="M25.713,29.257l2.3-4.6a2.148,2.148,0,0,1,2.577-1.074l12.887,4.3a2.148,2.148,0,0,1,1.482,2.04V40.662a4.3,4.3,0,0,1-4.3,4.3h-4.3A34.366,34.366,0,0,1,2,10.592V6.3A4.308,4.308,0,0,1,6.3,2H17.035a2.148,2.148,0,0,1,2.04,1.461l4.3,12.887a2.148,2.148,0,0,1-1.074,2.6l-4.618,2.3a21.586,21.586,0,0,0,8.012,8.012ZM15.489,6.3H6.3v4.3a30.07,30.07,0,0,0,30.07,30.07h4.3V31.469L31,28.247,28.591,33.1a2.148,2.148,0,0,1-2.792.988,25.86,25.86,0,0,1-12.93-12.909,2.148,2.148,0,0,1,.988-2.792l4.854-2.449Z" transform="translate(-2 -2)"/>
</svg>
