<svg xmlns="http://www.w3.org/2000/svg" width="41.658" height="41.658" viewBox="0 0 41.658 41.658">
  <defs>
    <style>
      .cls-1 {
        opacity: 0.6;
      }

      .cls-2 {
        fill: #4f76bb;
      }

      .cls-3 {
        fill: #fff;
        fill-rule: evenodd;
      }
    </style>
  </defs>
  <g id="icon-facebook" class="cls-1">
    <path id="Path_4" data-name="Path 4" class="cls-2" d="M41.658,32.31a9.349,9.349,0,0,1-9.349,9.349H9.349A9.355,9.355,0,0,1,0,32.31V9.349A9.355,9.355,0,0,1,9.349,0H32.309a9.355,9.355,0,0,1,9.349,9.349Z"/>
    <path id="Path_5" data-name="Path 5" class="cls-3" d="M192.989,121.751c.7-.024,1.4-.008,2.1-.008h.285v-3.637c-.374-.041-.765-.09-1.155-.106-.716-.033-1.432-.065-2.156-.049a5.306,5.306,0,0,0-3.035.936,4.519,4.519,0,0,0-1.823,3.035,11.136,11.136,0,0,0-.13,1.562c-.016.814,0,1.627,0,2.449v.309H183.6v4.06h3.458v10.2h4.223V130.31h3.45c.179-1.351.35-2.685.529-4.076h-.773c-.984.008-3.23,0-3.23,0s.008-2.01.033-2.888C191.321,122.149,192.037,121.783,192.989,121.751Z" transform="translate(-168.662 -108.35)"/>
  </g>
</svg>
