<svg xmlns="http://www.w3.org/2000/svg" width="41.658" height="41.658" viewBox="0 0 41.658 41.658">
  <defs>
    <style>
      .cls-1 {
        opacity: 0.6;
      }

      .cls-2 {
        fill: #ef3f38;
      }

      .cls-3 {
        fill: #fff;
        fill-rule: evenodd;
      }
    </style>
  </defs>
  <g id="icon-youtube" class="cls-1">
    <path id="Path_10" data-name="Path 10" class="cls-2" d="M41.658,32.31a9.349,9.349,0,0,1-9.349,9.349H9.349A9.355,9.355,0,0,1,0,32.31V9.349A9.355,9.355,0,0,1,9.349,0H32.309a9.355,9.355,0,0,1,9.349,9.349Z"/>
    <path id="Path_11" data-name="Path 11" class="cls-3" d="M115.037,171.34a2.731,2.731,0,0,1-1.79-1.741c-.773-2.132-1-11.049.488-12.807a2.93,2.93,0,0,1,1.953-1.041c4.019-.431,16.46-.374,17.892.146a2.812,2.812,0,0,1,1.757,1.692c.846,2.2.879,10.227-.114,12.351a2.689,2.689,0,0,1-1.261,1.269C132.465,172,117.014,171.99,115.037,171.34Zm6.4-4.182,7.249-3.759-7.249-3.783C121.432,162.137,121.432,164.635,121.432,167.158Z" transform="translate(-103.475 -142.813)"/>
  </g>
</svg>
